<svg width="29" height="28" viewBox="0 0 29 28" fill="none" xmlns="http://www.w3.org/2000/svg">
<path d="M15.2048 14C15.2048 14.2163 15.1407 14.4277 15.0205 14.6076C14.9003 14.7875 14.7295 14.9277 14.5296 15.0105C14.3298 15.0932 14.1099 15.1149 13.8977 15.0727C13.6855 15.0305 13.4906 14.9263 13.3377 14.7734C13.1847 14.6204 13.0806 14.4255 13.0384 14.2133C12.9961 14.0012 13.0178 13.7813 13.1006 13.5814C13.1834 13.3815 13.3236 13.2107 13.5034 13.0905C13.6833 12.9704 13.8948 12.9062 14.1111 12.9062C14.4012 12.9062 14.6794 13.0214 14.8845 13.2266C15.0896 13.4317 15.2048 13.7099 15.2048 14ZM9.29858 12.9062C9.08226 12.9062 8.8708 12.9704 8.69093 13.0905C8.51106 13.2107 8.37087 13.3815 8.28809 13.5814C8.20531 13.7813 8.18365 14.0012 8.22585 14.2133C8.26805 14.4255 8.37222 14.6204 8.52519 14.7734C8.67815 14.9263 8.87304 15.0305 9.0852 15.0727C9.29737 15.1149 9.51729 15.0932 9.71714 15.0105C9.917 14.9277 10.0878 14.7875 10.208 14.6076C10.3282 14.4277 10.3923 14.2163 10.3923 14C10.3923 13.7099 10.2771 13.4317 10.072 13.2266C9.86686 13.0214 9.58866 12.9062 9.29858 12.9062ZM18.9236 12.9062C18.7073 12.9062 18.4958 12.9704 18.3159 13.0905C18.1361 13.2107 17.9959 13.3815 17.9131 13.5814C17.8303 13.7813 17.8086 14.0012 17.8509 14.2133C17.8931 14.4255 17.9972 14.6204 18.1502 14.7734C18.3031 14.9263 18.498 15.0305 18.7102 15.0727C18.9224 15.1149 19.1423 15.0932 19.3421 15.0105C19.542 14.9277 19.7128 14.7875 19.833 14.6076C19.9532 14.4277 20.0173 14.2163 20.0173 14C20.0173 13.7099 19.9021 13.4317 19.697 13.2266C19.4919 13.0214 19.2137 12.9062 18.9236 12.9062ZM25.2673 14C25.2677 15.9339 24.7654 17.8348 23.8095 19.5161C22.8537 21.1973 21.4772 22.6013 19.8151 23.5901C18.1531 24.5789 16.2625 25.1187 14.3289 25.1564C12.3952 25.1942 10.485 24.7286 8.78561 23.8054L4.97171 25.0764C4.70191 25.1663 4.41238 25.1794 4.13558 25.1141C3.85877 25.0487 3.60563 24.9076 3.40452 24.7065C3.20342 24.5054 3.06229 24.2523 2.99697 23.9755C2.93164 23.6987 2.9447 23.4091 3.03468 23.1393L4.30562 19.3254C3.49543 17.8325 3.03686 16.1742 2.96486 14.4771C2.89286 12.7801 3.20934 11.0889 3.89017 9.53273C4.57099 7.97652 5.59818 6.59633 6.89341 5.49739C8.18864 4.39845 9.71771 3.60978 11.364 3.19152C13.0103 2.77326 14.7304 2.73646 16.3931 3.08392C18.0558 3.43137 19.6172 4.15392 20.9583 5.19645C22.2993 6.23899 23.3846 7.57398 24.1314 9.09964C24.8782 10.6253 25.2667 12.3013 25.2673 14ZM23.9548 14C23.9545 12.4899 23.6067 11.0002 22.9385 9.64614C22.2703 8.29202 21.2995 7.1098 20.1012 6.19092C18.903 5.27204 17.5094 4.64115 16.0283 4.34705C14.5472 4.05296 13.0183 4.10355 11.5598 4.4949C10.1014 4.88626 8.75259 5.60789 7.6177 6.60397C6.48281 7.60004 5.59228 8.84386 5.01502 10.2392C4.43777 11.6345 4.18925 13.1439 4.28871 14.6507C4.38817 16.1574 4.83293 17.6211 5.58858 18.9284C5.63526 19.0089 5.66427 19.0984 5.6737 19.191C5.68313 19.2836 5.67276 19.3772 5.64327 19.4654L4.28046 23.5539C4.26761 23.5924 4.26574 23.6338 4.27507 23.6733C4.2844 23.7129 4.30456 23.749 4.33329 23.7777C4.36202 23.8065 4.39819 23.8266 4.43773 23.836C4.47727 23.8453 4.51864 23.8434 4.55718 23.8306L8.64233 22.4678C8.70942 22.4457 8.77953 22.4343 8.85015 22.4339C8.96534 22.4345 9.0784 22.465 9.17827 22.5225C10.6748 23.389 12.3732 23.8461 14.1026 23.8476C15.8319 23.8491 17.5311 23.395 19.0292 22.531C20.5272 21.667 21.7712 20.4236 22.6359 18.9259C23.5006 17.4283 23.9555 15.7293 23.9548 14Z" fill="#545454"/>
</svg>
