<svg width="44" height="16" viewBox="0 0 44 16" fill="none" xmlns="http://www.w3.org/2000/svg">
<path d="M43.5873 1.7578L23.0865 15.6943C22.7983 15.8901 22.4075 16 22 16C21.5925 16 21.2018 15.8901 20.9135 15.6943L0.412664 1.7578C0.141069 1.55966 -0.00678857 1.29759 0.000239546 1.0268C0.00726766 0.756013 0.168633 0.49765 0.450341 0.306145C0.732048 0.114639 1.1121 0.00494058 1.51044 0.000162842C1.90877 -0.0046149 2.29428 0.0959007 2.58575 0.280532L22 13.4767L41.4143 0.280532C41.7057 0.0959007 42.0912 -0.0046149 42.4896 0.000162842C42.8879 0.00494058 43.268 0.114639 43.5497 0.306145C43.8314 0.49765 43.9927 0.756013 43.9998 1.0268C44.0068 1.29759 43.8589 1.55966 43.5873 1.7578Z" fill="#545454"/>
</svg>
